<svg width="60" height="60" viewBox="0 0 60 60" fill="none" xmlns="http://www.w3.org/2000/svg" id=":r7r:" class="min-w-[60px]"><path d="M18.9172 10.4167C6.55358 13.0109 6.63897 21.3921 8.49728 26.0704C8.65066 26.4566 9.17698 26.4553 9.3665 26.0856C13.2755 18.4595 17.1718 17.0484 18.9791 17.3329C19.1917 17.3664 19.3291 17.5618 19.3291 17.777V20.3257C19.3291 20.7781 19.882 20.9979 20.1926 20.669L26.0788 14.4366C26.2645 14.2399 26.2601 13.9311 26.0688 13.7397L20.1825 7.85349C19.8676 7.53851 19.329 7.76143 19.329 8.20687L19.329 9.92119C19.329 10.1604 19.1514 10.3676 18.9172 10.4167Z" fill="#7297EB" stroke="black" stroke-width="1.2"></path><path d="M31.0625 8C31.0625 7.25442 31.6669 6.65 32.4125 6.65H50.4125C51.1581 6.65 51.7625 7.25442 51.7625 8V26C51.7625 26.7456 51.1581 27.35 50.4125 27.35H32.4125C31.6669 27.35 31.0625 26.7456 31.0625 26V8Z" fill="#FEDFA2" stroke="black" stroke-width="1.3"></path><path d="M31.0625 8C31.0625 7.25442 31.6669 6.65 32.4125 6.65H50.4125C51.1581 6.65 51.7625 7.25442 51.7625 8V12.6833H31.0625V8Z" fill="#FCAF17" stroke="black" stroke-width="1.3"></path><path d="M34.0793 22.0417H39.121M34.0793 24.7917H39.121" stroke="black" stroke-width="1.3" stroke-linecap="round"></path><path d="M37.4875 17.7533L37.531 6.65H45.3977L45.3545 18.0638C45.3533 18.3662 44.9951 18.5249 44.7703 18.3226L41.9106 15.7488C41.6377 15.5032 41.2271 15.4913 40.9404 15.7207L38.0562 18.028C37.8265 18.2117 37.4864 18.0475 37.4875 17.7533Z" fill="#EA7B73" stroke="black" stroke-width="1.3"></path><path d="M8.23752 34C8.23752 33.2544 8.84194 32.65 9.58752 32.65H27.5875C28.3331 32.65 28.9375 33.2544 28.9375 34V52C28.9375 52.7456 28.3331 53.35 27.5875 53.35H9.58752C8.84194 53.35 8.23752 52.7456 8.23752 52V34Z" fill="#FEDFA2" stroke="black" stroke-width="1.3"></path><path d="M8.23752 34C8.23752 33.2544 8.84194 32.65 9.58752 32.65H27.5875C28.3331 32.65 28.9375 33.2544 28.9375 34V38.6833H8.23752V34Z" fill="#FCAF17" stroke="black" stroke-width="1.3"></path><path d="M11.2544 48.0417H16.2961M11.2544 50.7917H16.2961" stroke="black" stroke-width="1.3" stroke-linecap="round"></path><path d="M14.6626 43.7533L14.706 32.65H22.5728L22.5295 44.0638C22.5284 44.3662 22.1702 44.5249 21.9454 44.3226L19.0856 41.7488C18.8127 41.5032 18.4021 41.4913 18.1154 41.7207L15.2312 44.028C15.0015 44.2117 14.6614 44.0475 14.6626 43.7533Z" fill="#EA7B73" stroke="black" stroke-width="1.3"></path><path d="M41.0828 49.5833C53.4464 46.9891 53.361 38.6079 51.5027 33.9296C51.3493 33.5434 50.823 33.5447 50.6335 33.9144C46.7245 41.5405 42.8282 42.9516 41.0209 42.6671C40.8083 42.6336 40.6709 42.4382 40.6709 42.223L40.6709 39.6743C40.6709 39.2219 40.118 39.0021 39.8074 39.331L33.9212 45.5634C33.7355 45.7601 33.7399 46.0689 33.9312 46.2603L39.8175 52.1465C40.1324 52.4615 40.671 52.2386 40.671 51.7931L40.671 50.0788C40.671 49.8396 40.8486 49.6324 41.0828 49.5833Z" fill="#7297EB" stroke="black" stroke-width="1.2"></path></svg>